<?xml version="1.0" standalone="no"?>
<!DOCTYPE svg PUBLIC "-//W3C//DTD SVG 20010904//EN"
 "http://www.w3.org/TR/2001/REC-SVG-20010904/DTD/svg10.dtd">
<svg version="1.0" xmlns="http://www.w3.org/2000/svg"
 width="500.000000pt" height="500.000000pt" viewBox="0 0 500.000000 500.000000"
 preserveAspectRatio="xMidYMid meet">
<metadata>
Created by potrace 1.11, written by Peter Selinger 2001-2013
</metadata>
<g transform="translate(0.000000,500.000000) scale(0.100000,-0.100000)"
fill="#000000" stroke="none">
<path d="M2155 4330 l-40 -5 -1 -87 c-1 -49 1 -88 5 -88 10 -1 144 -20 171
-25 14 -3 38 -8 54 -10 95 -18 197 -65 253 -118 70 -66 67 -11 67 -1207 0
-1073 -4 -1266 -29 -1410 -28 -155 -51 -240 -86 -315 -65 -142 -183 -242 -326
-280 -57 -15 -226 -21 -288 -10 -146 26 -286 109 -335 196 -11 20 27 101 111
234 113 180 150 281 143 394 -8 146 -110 262 -254 286 -218 37 -364 -66 -425
-300 -21 -84 -14 -293 14 -392 94 -329 361 -553 726 -609 77 -12 310 -10 383
2 420 73 739 344 866 737 56 171 55 149 56 1377 0 624 3 1153 6 1175 16 124
68 190 172 218 74 21 203 45 271 51 30 3 56 8 59 10 2 3 5 44 6 91 l2 85 -41
1 c-182 4 -1509 3 -1540 -1z"/>
</g>
</svg>
